<svg xmlns="http://www.w3.org/2000/svg" data-name="Layer 1" viewBox="0 0 128 128"><path d="M104 8a16 16 0 0 1 16 16v80a16 16 0 0 1-16 16H24a16 16 0 0 1-16-16V24A16 16 0 0 1 24 8h80m0-8H24A24.07 24.07 0 0 0 0 24v80a24.07 24.07 0 0 0 24 24h80a24.07 24.07 0 0 0 24-24V24a24.07 24.07 0 0 0-24-24Z"/><circle cx="82" cy="46" r="5"/><path d="M64 48a16 16 0 1 0 16 16 16 16 0 0 0-16-16Zm0 24a8 8 0 1 1 8-8 8 8 0 0 1-8 8Z"/><rect width="64" height="64" x="32" y="32" fill="none" stroke="#000" stroke-miterlimit="10" stroke-width="8" rx="12" ry="12"/></svg>